<svg id="visual" viewBox="0 0 960 540" width="960" height="540" xmlns="http://www.w3.org/2000/svg" xmlns:xlink="http://www.w3.org/1999/xlink" version="1.1"><g stroke-width="4" stroke-linejoin="bevel"><path d="M449.4 290L545.6 403L532.6 293Z" fill="#ffffff" stroke="#D1D5DB"></path><path d="M449.4 290L389.4 372L545.6 403Z" fill="#ffffff" stroke="#D1D5DB"></path><path d="M561.6 540L647.7 434L545.6 403Z" fill="#ffffff" stroke="#D1D5DB"></path><path d="M545.6 403L647.7 434L532.6 293Z" fill="#ffffff" stroke="#D1D5DB"></path><path d="M381.4 540L561.6 540L545.6 403Z" fill="#ffffff" stroke="#D1D5DB"></path><path d="M721.7 282L533.6 151L532.6 293Z" fill="#ffffff" stroke="#D1D5DB"></path><path d="M532.6 293L533.6 151L449.4 290Z" fill="#ffffff" stroke="#D1D5DB"></path><path d="M248.3 264L251.3 445L389.4 372Z" fill="#ffffff" stroke="#D1D5DB"></path><path d="M389.4 372L381.4 540L545.6 403Z" fill="#ffffff" stroke="#D1D5DB"></path><path d="M647.7 434L721.7 282L532.6 293Z" fill="#ffffff" stroke="#D1D5DB"></path><path d="M561.6 540L661.7 540L647.7 434Z" fill="#ffffff" stroke="#D1D5DB"></path><path d="M831.9 391L780.9 290L721.7 282Z" fill="#ffffff" stroke="#D1D5DB"></path><path d="M248.3 264L389.4 372L449.4 290Z" fill="#ffffff" stroke="#D1D5DB"></path><path d="M389.4 372L251.3 445L381.4 540Z" fill="#ffffff" stroke="#D1D5DB"></path><path d="M395.4 107L248.3 264L449.4 290Z" fill="#ffffff" stroke="#D1D5DB"></path><path d="M533.6 151L395.4 107L449.4 290Z" fill="#ffffff" stroke="#D1D5DB"></path><path d="M831.9 391L721.7 282L647.7 434Z" fill="#ffffff" stroke="#D1D5DB"></path><path d="M721.7 282L705.7 138L533.6 151Z" fill="#ffffff" stroke="#D1D5DB"></path><path d="M780.9 290L705.7 138L721.7 282Z" fill="#ffffff" stroke="#D1D5DB"></path><path d="M533.6 151L400.4 0L395.4 107Z" fill="#ffffff" stroke="#D1D5DB"></path><path d="M395.4 107L265.3 138L248.3 264Z" fill="#ffffff" stroke="#D1D5DB"></path><path d="M174.1 540L232.3 540L251.3 445Z" fill="#ffffff" stroke="#D1D5DB"></path><path d="M251.3 445L232.3 540L381.4 540Z" fill="#ffffff" stroke="#D1D5DB"></path><path d="M248.3 264L152.1 409L251.3 445Z" fill="#ffffff" stroke="#D1D5DB"></path><path d="M152.1 289L152.1 409L248.3 264Z" fill="#ffffff" stroke="#D1D5DB"></path><path d="M171.1 159L152.1 289L248.3 264Z" fill="#ffffff" stroke="#D1D5DB"></path><path d="M788.9 540L831.9 391L647.7 434Z" fill="#ffffff" stroke="#D1D5DB"></path><path d="M794.9 0L674.7 0L705.7 138Z" fill="#ffffff" stroke="#D1D5DB"></path><path d="M661.7 540L788.9 540L647.7 434Z" fill="#ffffff" stroke="#D1D5DB"></path><path d="M578.6 0L400.4 0L533.6 151Z" fill="#ffffff" stroke="#D1D5DB"></path><path d="M395.4 107L286.3 0L265.3 138Z" fill="#ffffff" stroke="#D1D5DB"></path><path d="M705.7 138L578.6 0L533.6 151Z" fill="#ffffff" stroke="#D1D5DB"></path><path d="M152.1 409L174.1 540L251.3 445Z" fill="#ffffff" stroke="#D1D5DB"></path><path d="M114.1 0L171.1 159L265.3 138Z" fill="#ffffff" stroke="#D1D5DB"></path><path d="M265.3 138L171.1 159L248.3 264Z" fill="#ffffff" stroke="#D1D5DB"></path><path d="M852.9 100L705.7 138L780.9 290Z" fill="#ffffff" stroke="#D1D5DB"></path><path d="M705.7 138L674.7 0L578.6 0Z" fill="#ffffff" stroke="#D1D5DB"></path><path d="M400.4 0L286.3 0L395.4 107Z" fill="#ffffff" stroke="#D1D5DB"></path><path d="M960 152L852.9 100L780.9 290Z" fill="#ffffff" stroke="#D1D5DB"></path><path d="M852.9 100L794.9 0L705.7 138Z" fill="#ffffff" stroke="#D1D5DB"></path><path d="M960 432L960 298L831.9 391Z" fill="#ffffff" stroke="#D1D5DB"></path><path d="M831.9 391L960 298L780.9 290Z" fill="#ffffff" stroke="#D1D5DB"></path><path d="M788.9 540L960 432L831.9 391Z" fill="#ffffff" stroke="#D1D5DB"></path><path d="M152.1 289L0 378L152.1 409Z" fill="#ffffff" stroke="#D1D5DB"></path><path d="M152.1 409L0 540L174.1 540Z" fill="#ffffff" stroke="#D1D5DB"></path><path d="M0 273L0 378L152.1 289Z" fill="#ffffff" stroke="#D1D5DB"></path><path d="M0 273L152.1 289L0 163Z" fill="#ffffff" stroke="#D1D5DB"></path><path d="M0 163L152.1 289L171.1 159Z" fill="#ffffff" stroke="#D1D5DB"></path><path d="M788.9 540L960 540L960 432Z" fill="#ffffff" stroke="#D1D5DB"></path><path d="M960 298L960 152L780.9 290Z" fill="#ffffff" stroke="#D1D5DB"></path><path d="M852.9 100L960 0L794.9 0Z" fill="#ffffff" stroke="#D1D5DB"></path><path d="M286.3 0L114.1 0L265.3 138Z" fill="#ffffff" stroke="#D1D5DB"></path><path d="M0 378L0 540L152.1 409Z" fill="#ffffff" stroke="#D1D5DB"></path><path d="M114.1 0L0 163L171.1 159Z" fill="#ffffff" stroke="#D1D5DB"></path><path d="M960 152L960 0L852.9 100Z" fill="#ffffff" stroke="#D1D5DB"></path><path d="M114.1 0L0 0L0 163Z" fill="#ffffff" stroke="#D1D5DB"></path></g></svg>