<svg viewBox="0 0 960 540" xmlns="http://www.w3.org/2000/svg">
<g fill="#fff" stroke="#d2ac47" stroke-linejoin="bevel">
<path d="m496 219.4-11-93.1-55 80.1z"/>
<path d="m485 126.3-79-6 24 86.1z"/>
<path d="m464 105.1-58 15.2 79 6z"/>
<path d="m496 219.4 92-39.1-103-54z"/>
<path d="m485 126.3 91-58.2-112 37z"/>
<path d="m464 105.1-53-60-5 75.2z"/>
<path d="m480 0-69 45.1 53 60z"/>
<path d="m533 320.6 53-60.2-90-41z"/>
<path d="m496 219.4 90 41 2-80.1z"/>
<path d="m588 180.3-12-112.2-91 58.2z"/>
<path d="m295 164.3 48 99.1 87-57z"/>
<path d="m490 341.6 43-21-37-101.2z"/>
<path d="m295 164.3 135 42.1-24-86.1z"/>
<path d="m638 239.4-10-60.1-40 1z"/>
<path d="m588 180.3 33-115.2-45 3z"/>
<path d="m490 341.6 6-122.2-66-13z"/>
<path d="m390 335.6 100 6-60-135.2z"/>
<path d="M576 68.1L480 0L464 105.1Z"/>
<path d="m324 60.1-29 104.2 111-44z"/>
<path d="m343 263.4 47 72.2 40-129.2z"/>
<path d="m649 325.6-11-86.2-52 21z"/>
<path d="m586 260.4 52-21-50-59.1z"/>
<path d="m480 0h-65l-4 45.1z"/>
<path d="m411 45.1-87 15 82 60.2z"/>
<path d="m328 0-4 60.1 87-15z"/>
<path d="m628 179.3-7-114.2-33 115.2z"/>
<path d="m576 68.1-23-68.1h-73z"/>
<path d="m626 0-5 65.1 76-65.1z"/>
<path d="m269 239.4 62 70.2 12-46.2z"/>
<path d="m343 263.4-12 46.2 59 26z"/>
<path d="m626 0h-73l23 68.1z"/>
<path d="m258 183.3 11 56.1 26-75.1z"/>
<path d="m295 164.3-26 75.1 74 24z"/>
<path d="m206 82.1 52 101.2 37-19z"/>
<path d="m313 446.9 115-63.2-38-48.1z"/>
<path d="m390 335.6 38 48.1 62-42.1z"/>
<path d="m490 341.6 98 24.1-55-45.1z"/>
<path d="m512 463.9 76-98.2-98-24.1z"/>
<path d="m533 320.6 55 45.1-2-105.3z"/>
<path d="m415 0h-87l83 45.1z"/>
<path d="m324 60.1-118 22 89 82.2z"/>
<path d="m419 480.9 37-75.2-28-22z"/>
<path d="m428 383.7 28 22 34-64.1z"/>
<path d="m588 365.7 61-40.1-63-65.2z"/>
<path d="m718 179.3-97-114.2 7 114.2z"/>
<path d="m718 179.3h-90l10 60.1z"/>
<path d="m621 65.1 5-65.1-50 68.1z"/>
<path d="m747 204.4-29-25.1-80 60.1z"/>
<path d="m147 282.6 107 16 15-59.2z"/>
<path d="m269 239.4-15 59.2 77 11z"/>
<path d="m331 309.6-45 58.1 104-32.1z"/>
<path d="m254 298.6 32 69.1 45-58.1z"/>
<path d="m720 334.6 27-130.2-109 35z"/>
<path d="m718 179.3 4-125.2-101 11z"/>
<path d="m816 85.1-94-31-4 125.2z"/>
<path d="m247 0-41 82.1 118-22z"/>
<path d="m258 183.3-107 19.1 118 37z"/>
<path d="m328 0h-81l77 60.1z"/>
<path d="M722 54.1L697 0L621 65.1Z"/>
<path d="m533 479.9 97-65.2-42-49z"/>
<path d="m588 365.7 42 49 19-89.1z"/>
<path d="m649 325.6 71 9-82-95.2z"/>
<path d="m456 405.7 56 58.2-22-122.3z"/>
<path d="m419 480.9 93-17-56-58.2z"/>
<path d="m701 406.7 19-72.1-71-9z"/>
<path d="m313 446.9 106 34 9-97.2z"/>
<path d="m512 463.9 21 16 55-114.2z"/>
<path d="m457 540 76-60.1-21-16z"/>
<path d="m247 0-60 47.1 19 35z"/>
<path d="m131 164.3 20 38.1 107-19.1z"/>
<path d="m248 456.9 65-10-27-79.2z"/>
<path d="m286 367.7 27 79.2 77-111.3z"/>
<path d="m628 540 37-110.1-35-15.2z"/>
<path d="m630 414.7 71-8-52-81.1z"/>
<path d="m131 164.3 127 19-52-101.2z"/>
<path d="m254 298.6-33 120.1 65-51z"/>
<path d="m665 429.9 36-23.2-71 8z"/>
<path d="m813 328.6-14-74.2-79 80.2z"/>
<path d="m720 334.6 79-80.2-52-50z"/>
<path d="m833 121.3-17-36.2-98 94.2z"/>
<path d="m187 47.1-56 117.2 75-82.2z"/>
<path d="m109 233.4 38 49.2 4-80.2z"/>
<path d="m151 202.4-4 80.2 122-43.2z"/>
<path d="m180 415.7 41 3 33-120.1z"/>
<path d="m419 540h38l-38-59.1z"/>
<path d="m833 121.3-115 58 29 25.1z"/>
<path d="M722 54.1L825 0L697 0Z"/>
<path d="m221 418.7 27 38.2 38-89.2z"/>
<path d="m187 47.1-78 111.2 22 6z"/>
<path d="m247 0h-92l32 47.1z"/>
<path d="m49 74.1 60 84.2 78-111.2z"/>
<path d="m131 164.3-22 69.1 42-31z"/>
<path d="m419 540v-59.1l-78 59.1z"/>
<path d="m419 480.9 38 59.1 55-76.1z"/>
<path d="m533 479.9 95 60.1 2-125.3z"/>
<path d="m109 158.3v75.1l22-69.1z"/>
<path d="m147 282.6 33 133.1 74-117.1z"/>
<path d="m799 254.4 34-133.1-86 83.1z"/>
<path d="m341 540 78-59.1-106-34z"/>
<path d="m457 540h81l-5-60.1z"/>
<path d="m721 490.9 74-80.2-94-4z"/>
<path d="m795 410.7 18-82.1-93 6z"/>
<path d="m799 254.4 108-46-74-87.1z"/>
<path d="m795 410.7-75-76.1-19 72.1z"/>
<path d="m221 418.7-41-3 68 41.2z"/>
<path d="m103 413.7 77 2-33-133.1z"/>
<path d="m206 540h135l-93-83.1z"/>
<path d="m248 456.9 93 83.1-28-93.1z"/>
<path d="m876 51.1-51-51.1-9 85.1z"/>
<path d="M816 85.1L825 0L722 54.1Z"/>
<path d="m538 540h90l-95-60.1z"/>
<path d="m721 490.9-20-84.2-36 23.2z"/>
<path d="m628 540 93-49.1-56-61z"/>
<path d="m0 225.4 79 56.2 30-48.2z"/>
<path d="m109 233.4-30 48.2 68 1z"/>
<path d="m854 415.7 12-107.1-53 20z"/>
<path d="m813 328.6 53-20-67-54.2z"/>
<path d="m833 121.3 43-70.2-60 34z"/>
<path d="m914 171.3-38-120.2-43 70.2z"/>
<path d="m628 540h75l18-49.1z"/>
<path d="m814 486.9 40-71.2-59-5z"/>
<path d="m155 0-106 74.1 138-27z"/>
<path d="m109 158.3-109 67.1 109 8z"/>
<path d="m155 0h-84l-22 74.1z"/>
<path d="m866 308.6 41-100.2-108 46z"/>
<path d="m79 281.6 24 132.1 44-131.1z"/>
<path d="m175 540h31l42-83.1z"/>
<path d="m907 208.4 7-37.1-81-50z"/>
<path d="m126 481.9 122-25-68-41.2z"/>
<path d="m795 410.7 59 5-41-87.1z"/>
<path d="m960 251.4v-97.1l-53 54.1z"/>
<path d="m814 486.9-19-76.2-74 80.2z"/>
<path d="m103 413.7 23 68.2 54-66.2z"/>
<path d="m816 540-2-53.1-93 4z"/>
<path d="M960 51.1L905 0L876 51.1Z"/>
<path d="m876 51.1 29-51.1h-80z"/>
<path d="m126 481.9 49 58.1 73-83.1z"/>
<path d="m0 46.1v87.2l49-59.2z"/>
<path d="m49 74.1-49 59.2 109 25z"/>
<path d="m79 281.6-79 74.1 103 58z"/>
<path d="m103 413.7-14 59.2 37 9z"/>
<path d="m0 133.3v92.1l109-67.1z"/>
<path d="m0 436.9 89 36 14-59.2z"/>
<path d="m126 481.9-53 58.1h102z"/>
<path d="m0 225.4v63.2l79-7z"/>
<path d="m71 0-71 46.1 49 28z"/>
<path d="m907 208.4 53-54.1-46 17z"/>
<path d="m914 171.3 46-17-84-103.2z"/>
<path d="m960 251.4-53-43-41 100.2z"/>
<path d="m960 308.6v-57.2l-94 57.2z"/>
<path d="m960 308.6h-94l94 105.1z"/>
<path d="m816 540 50-64.1-52 11z"/>
<path d="m814 486.9 52-11-12-60.2z"/>
<path d="m71 0h-71v46.1z"/>
<path d="m703 540h113l-95-49.1z"/>
<path d="m0 288.6v67.1l79-74.1z"/>
<path d="m960 154.3v-103.2h-84z"/>
<path d="m960 413.7-94-105.1-12 107.1z"/>
<path d="m960 51.1v-51.1h-55z"/>
<path d="m0 355.7v81.2l103-23.2z"/>
<path d="m89 472.9-16 67.1 53-58.1z"/>
<path d="m0 540h73l16-67.1z"/>
<path d="m960 456.9-106-41.2 12 60.2z"/>
<path d="m960 456.9v-43.2l-106 2z"/>
<path d="m816 540h80l-30-64.1z"/>
<path d="m896 540 64-83.1-94 19z"/>
<path d="m0 436.9v103.1l89-67.1z"/>
<path d="m896 540h64v-83.1z"/>
</g>
</svg>